<svg width="57" height="57" viewBox="0 0 57 57" fill="none" xmlns="http://www.w3.org/2000/svg">
<circle cx="28.3333" cy="28.0254" r="28" fill="white"/>
<circle cx="23.3333" cy="33.4619" r="7" fill="#D7EDEC"/>
<path d="M24 36C24.5304 36 25.0391 35.7893 25.4142 35.4142C25.7893 35.0391 26 34.5304 26 34C26 33.4696 25.7893 32.9609 25.4142 32.5858C25.0391 32.2107 24.5304 32 24 32C23.4696 32 22.9609 32.2107 22.5858 32.5858C22.2107 32.9609 22 33.4696 22 34C22 34.5304 22.2107 35.0391 22.5858 35.4142C22.9609 35.7893 23.4696 36 24 36V36ZM34 36C34.5304 36 35.0391 35.7893 35.4142 35.4142C35.7893 35.0391 36 34.5304 36 34C36 33.4696 35.7893 32.9609 35.4142 32.5858C35.0391 32.2107 34.5304 32 34 32C33.4696 32 32.9609 32.2107 32.5858 32.5858C32.2107 32.9609 32 33.4696 32 34C32 34.5304 32.2107 35.0391 32.5858 35.4142C32.9609 35.7893 33.4696 36 34 36V36Z" stroke="#1E1E1E" stroke-width="1.6" stroke-miterlimit="1.5" stroke-linecap="round" stroke-linejoin="round"/>
<path d="M26.05 34H31V21.6C31 21.4409 30.9368 21.2883 30.8243 21.1757C30.7117 21.0632 30.5591 21 30.4 21H17M21.65 34H19.6C19.5212 34 19.4432 33.9845 19.3704 33.9543C19.2976 33.9242 19.2315 33.88 19.1757 33.8243C19.12 33.7685 19.0758 33.7024 19.0457 33.6296C19.0155 33.5568 19 33.4788 19 33.4V28.5" stroke="#1E1E1E" stroke-width="1.6" stroke-linecap="round"/>
<path d="M18 25H22" stroke="#1E1E1E" stroke-width="1.6" stroke-linecap="round" stroke-linejoin="round"/>
<path d="M31 25H36.61C36.726 25 36.8395 25.0337 36.9367 25.0969C37.034 25.16 37.1108 25.25 37.158 25.356L38.948 30.384C38.9821 30.4605 38.9998 30.5433 39 30.627V33.4C39 33.4788 38.9845 33.5568 38.9543 33.6296C38.9242 33.7024 38.88 33.7685 38.8243 33.8243C38.7685 33.88 38.7024 33.9242 38.6296 33.9543C38.5568 33.9845 38.4788 34 38.4 34H36.5M31 34H32" stroke="#1E1E1E" stroke-width="1.6" stroke-linecap="round"/>
</svg>
