<svg width="24" height="24" viewBox="0 0 24 24" fill="none" xmlns="http://www.w3.org/2000/svg">
<path d="M2 12C2 13.9778 2.58649 15.9112 3.6853 17.5557C4.78412 19.2002 6.3459 20.4819 8.17317 21.2388C10.0004 21.9957 12.0111 22.1937 13.9509 21.8079C15.8907 21.422 17.6725 20.4696 19.0711 19.0711C20.4696 17.6725 21.422 15.8907 21.8079 13.9509C22.1937 12.0111 21.2569 10.7658 20.5 8.93853C19.7431 7.11127 19.2002 4.78412 17.5557 3.6853C15.9112 2.58649 13.9778 2 12 2C10.6868 2 9.38642 2.25866 8.17317 2.7612C6.95991 3.26375 5.85752 4.00035 4.92893 4.92893C3.05357 6.8043 2 9.34784 2 12ZM15.0615 19.8463C15.0615 21.4285 22.3989 7.62294 21.5199 8.93853C20.6408 10.2541 19.3914 11.2795 17.9296 11.885C16.4678 12.4905 14.8592 12.6489 13.3074 12.3403C11.7555 12.0316 10.3301 11.2696 9.21124 10.1508C8.09242 9.03201 7.33049 7.60654 7.02181 6.05469C6.71313 4.50285 4.00346 10.4003 4.60896 8.93853C5.21446 7.47672 1.30131 14.0736 2.61691 13.1945C3.9325 12.3155 5.47922 11.8463 7.06147 11.8463C9.1832 11.8463 11.218 12.6891 12.7183 14.1894C14.2186 15.6897 15.0615 17.7246 15.0615 19.8463Z" fill="#F6F6F6"/>
<path d="M2 12C2 13.9778 2.58649 15.9112 3.6853 17.5557C4.78412 19.2002 6.3459 20.4819 8.17317 21.2388C10.0004 21.9957 12.0111 22.1937 13.9509 21.8079C15.8907 21.422 17.6725 20.4696 19.0711 19.0711C20.4696 17.6725 21.422 15.8907 21.8079 13.9509C22.1937 12.0111 21.9957 10.0004 21.2388 8.17317C20.4819 6.3459 19.2002 4.78412 17.5557 3.6853C15.9112 2.58649 13.9778 2 12 2C10.6868 2 9.38642 2.25866 8.17317 2.7612C6.95991 3.26375 5.85752 4.00035 4.92893 4.92893C3.05357 6.8043 2 9.34784 2 12ZM20 12C20 13.5823 19.5308 15.129 18.6518 16.4446C17.7727 17.7602 16.5233 18.7855 15.0615 19.391C13.5997 19.9965 11.9911 20.155 10.4393 19.8463C8.88743 19.5376 7.46197 18.7757 6.34315 17.6569C5.22433 16.538 4.4624 15.1126 4.15372 13.5607C3.84504 12.0089 4.00346 10.4003 4.60896 8.93853C5.21447 7.47672 6.23984 6.22729 7.55544 5.34824C8.87103 4.46919 10.4177 4 12 4C14.1217 4 16.1566 4.84285 17.6569 6.34315C19.1571 7.84344 20 9.87827 20 12Z" fill="#BDBDBD"/>
</svg>
