<svg width="68" height="68" viewBox="0 0 68 68" fill="none" xmlns="http://www.w3.org/2000/svg">
<circle cx="34" cy="34" r="33" fill="white"/>
<path d="M1 34C1 52.2254 15.7746 67 34 67C52.2254 67 67 52.2254 67 34C67 15.7746 52.2254 1 34 1" stroke="#258884" stroke-width="2" stroke-linecap="round"/>
<path d="M19.88 39.32L21.22 37.38C22.0867 38.3267 23.0933 38.8 24.24 38.8C24.96 38.8 25.58 38.58 26.1 38.14C26.6333 37.6867 26.9 37.1 26.9 36.38C26.9 35.6467 26.6333 35.0533 26.1 34.6C25.5667 34.1467 24.8867 33.92 24.06 33.92C23.2733 33.92 22.54 34.12 21.86 34.52L20.42 34L21.08 26.8H28.56V29.02H23.32L23.1 31.36L23 32.02H23.04C23.44 31.8067 23.9467 31.7 24.56 31.7C26.08 31.7 27.2933 32.1467 28.2 33.04C29.1067 33.9333 29.56 35.04 29.56 36.36C29.56 37.76 29.0733 38.9267 28.1 39.86C27.1267 40.78 25.9067 41.24 24.44 41.24C23.5733 41.24 22.74 41.0733 21.94 40.74C21.14 40.4067 20.4533 39.9333 19.88 39.32ZM31.7262 41V38.44H34.2663V41H31.7262ZM44.282 40.68C43.602 41.0533 42.7954 41.24 41.862 41.24C40.9287 41.24 40.1154 41.0533 39.422 40.68C38.742 40.3067 38.2087 39.7733 37.822 39.08C37.4354 38.3867 37.1487 37.6133 36.962 36.76C36.7887 35.9067 36.702 34.9467 36.702 33.88C36.702 32.8133 36.7887 31.8533 36.962 31C37.1487 30.1467 37.4354 29.38 37.822 28.7C38.2087 28.02 38.742 27.4933 39.422 27.12C40.102 26.7467 40.9154 26.56 41.862 26.56C45.2887 26.56 47.002 29 47.002 33.88C47.002 34.9467 46.9087 35.9067 46.722 36.76C46.5487 37.6133 46.2687 38.3867 45.882 39.08C45.5087 39.7733 44.9754 40.3067 44.282 40.68ZM39.362 33.88C39.362 37.2133 40.1954 38.88 41.862 38.88C43.5287 38.88 44.362 37.2133 44.362 33.88C44.362 30.5867 43.5287 28.94 41.862 28.94C40.1954 28.94 39.362 30.5867 39.362 33.88Z" fill="#1E1E1E"/>
</svg>
