<svg width="56" height="57" viewBox="0 0 56 57" fill="none" xmlns="http://www.w3.org/2000/svg">
<circle cx="28" cy="28.0254" r="28" fill="white"/>
<circle cx="35" cy="35.0254" r="7" fill="#F6DFE3"/>
<path d="M29.1716 19H25C23.1144 19 22.1716 19 21.5858 19.5858C21 20.1716 21 21.1144 21 23V33C21 34.8856 21 35.8284 21.5858 36.4142C22.1716 37 23.1144 37 25 37H31C32.8856 37 33.8284 37 34.4142 36.4142C35 35.8284 35 34.8856 35 33V24.8284C35 24.4197 35 24.2153 34.9239 24.0315C34.8478 23.8478 34.7032 23.7032 34.4142 23.4142L30.5858 19.5858C30.2968 19.2968 30.1522 19.1522 29.9685 19.0761C29.7847 19 29.5803 19 29.1716 19Z" stroke="#1E1E1E" stroke-width="2"/>
<path d="M29 19V23C29 23.9428 29 24.4142 29.2929 24.7071C29.5858 25 30.0572 25 31 25H35" stroke="#1E1E1E" stroke-width="2"/>
</svg>
