<svg width="57" height="56" viewBox="0 0 57 56" fill="none" xmlns="http://www.w3.org/2000/svg">
<circle cx="28.5" cy="28" r="28" fill="white"/>
<circle cx="33.5" cy="23" r="7" fill="#F6DFE3"/>
<path d="M20 26C20 24.1144 20 23.1716 20.5858 22.5858C21.1716 22 22.1144 22 24 22H34C35.8856 22 36.8284 22 37.4142 22.5858C38 23.1716 38 24.1144 38 26V26H20V26Z" stroke="#1E1E1E" stroke-width="1.6"/>
<rect x="20" y="22" width="18" height="15" rx="2" stroke="#1E1E1E" stroke-width="1.6"/>
<path d="M24 19L24 22" stroke="#1E1E1E" stroke-width="1.6" stroke-linecap="round"/>
<path d="M34 19L34 22" stroke="#1E1E1E" stroke-width="1.6" stroke-linecap="round"/>
<rect x="24" y="28" width="4" height="2" rx="0.5" fill="#1E1E1E"/>
<rect x="24" y="32" width="4" height="2" rx="0.5" fill="#1E1E1E"/>
<rect x="30" y="28" width="4" height="2" rx="0.5" fill="#1E1E1E"/>
<rect x="30" y="32" width="4" height="2" rx="0.5" fill="#1E1E1E"/>
</svg>
