<svg width="56" height="56" viewBox="0 0 56 56" fill="none" xmlns="http://www.w3.org/2000/svg">
<circle cx="28" cy="28" r="28" fill="white"/>
<circle cx="22.5" cy="23" r="7" fill="#F6DFE3"/>
<path d="M19 22.5V22.5C19 21.1193 20.1193 20 21.5 20L35.2857 20C35.4852 20 35.585 20 35.6651 20.0281C35.8088 20.0783 35.9217 20.1912 35.9719 20.3349C36 20.415 36 20.5148 36 20.7143V20.7143C36 21.9112 36 22.5097 35.8317 22.9908C35.5301 23.8526 34.8526 24.5301 33.9908 24.8316C33.5097 25 32.9112 25 31.7143 25H31M19 22.5V22.5C19 23.8807 20.1193 25 21.5 25H35C35.9428 25 36.4142 25 36.7071 25.2929C37 25.5858 37 26.0572 37 27L37 29M19 22.5L19 33C19 34.8856 19 35.8284 19.5858 36.4142C20.1716 37 21.1144 37 23 37L35 37C35.9428 37 36.4142 37 36.7071 36.7071C37 36.4142 37 35.9428 37 35L37 33M37 33H33C32.0572 33 31.5858 33 31.2929 32.7071C31 32.4142 31 31.9428 31 31V31C31 30.0572 31 29.5858 31.2929 29.2929C31.5858 29 32.0572 29 33 29H37M37 33L37 29" stroke="#1E1E1E" stroke-width="1.6"/>
</svg>
