<svg width="57" height="56" viewBox="0 0 57 56" fill="none" xmlns="http://www.w3.org/2000/svg">
<circle cx="28.5" cy="28" r="28" fill="white"/>
<circle cx="35.5" cy="35" r="7" fill="#FDFFC7"/>
<path d="M28.898 35.804L29.2664 36.5141H29.2664L28.898 35.804ZM28.102 35.804L27.7336 36.5141H27.7336L28.102 35.804ZM34.7 27C34.7 29.2183 33.5704 31.0361 32.187 32.4314C30.8044 33.826 29.2353 34.7278 28.5297 35.0938L29.2664 36.5141C30.0437 36.1109 31.7756 35.1189 33.3232 33.5579C34.8701 31.9976 36.3 29.7981 36.3 27H34.7ZM28.5 20.8C31.9242 20.8 34.7 23.5758 34.7 27H36.3C36.3 22.6922 32.8078 19.2 28.5 19.2V20.8ZM22.3 27C22.3 23.5758 25.0758 20.8 28.5 20.8V19.2C24.1922 19.2 20.7 22.6922 20.7 27H22.3ZM28.4703 35.0938C27.7647 34.7278 26.1956 33.826 24.813 32.4314C23.4296 31.0361 22.3 29.2183 22.3 27H20.7C20.7 29.7981 22.1299 31.9976 23.6768 33.5579C25.2244 35.1189 26.9563 36.1109 27.7336 36.5141L28.4703 35.0938ZM28.5297 35.0938C28.5154 35.1012 28.5058 35.1023 28.5 35.1023C28.4942 35.1023 28.4846 35.1012 28.4703 35.0938L27.7336 36.5141C28.2174 36.7651 28.7826 36.7651 29.2664 36.5141L28.5297 35.0938ZM30.7 27C30.7 28.215 29.715 29.2 28.5 29.2V30.8C30.5987 30.8 32.3 29.0987 32.3 27H30.7ZM28.5 24.8C29.715 24.8 30.7 25.785 30.7 27H32.3C32.3 24.9013 30.5987 23.2 28.5 23.2V24.8ZM26.3 27C26.3 25.785 27.285 24.8 28.5 24.8V23.2C26.4013 23.2 24.7 24.9013 24.7 27H26.3ZM28.5 29.2C27.285 29.2 26.3 28.215 26.3 27H24.7C24.7 29.0987 26.4013 30.8 28.5 30.8V29.2Z" fill="#1E1E1E"/>
</svg>
