<svg width="56" height="56" viewBox="0 0 56 56" fill="none" xmlns="http://www.w3.org/2000/svg">
<circle cx="28" cy="28" r="28" fill="white"/>
<circle cx="35" cy="35" r="7" fill="#F6DFE3"/>
<path d="M24 28L24 24C24 21.7909 25.7909 20 28 20V20C30.2091 20 32 21.7909 32 24L32 28" stroke="#1E1E1E" stroke-width="1.6" stroke-linecap="round"/>
<path d="M20 29C20 27.1144 20 26.1716 20.5858 25.5858C21.1716 25 22.1144 25 24 25H32C33.8856 25 34.8284 25 35.4142 25.5858C36 26.1716 36 27.1144 36 29V35C36 35.9428 36 36.4142 35.7071 36.7071C35.4142 37 34.9428 37 34 37H22C21.0572 37 20.5858 37 20.2929 36.7071C20 36.4142 20 35.9428 20 35V29Z" stroke="#1E1E1E" stroke-width="1.6"/>
</svg>
