<svg width="56" height="57" viewBox="0 0 56 57" fill="none" xmlns="http://www.w3.org/2000/svg">
<circle cx="28" cy="28.0127" r="28" fill="white"/>
<circle cx="21.4667" cy="35.4667" r="7.46667" fill="#D7EDEC"/>
<path d="M21.024 34.984L22.488 33.328C23.496 34.464 24.808 35.032 26.424 35.032C27.544 35.032 28.512 34.672 29.328 33.952C30.16 33.232 30.576 32.36 30.576 31.336C30.576 30.504 30.264 29.88 29.64 29.464C29.016 29.032 28.2 28.816 27.192 28.816H25.872L25.584 27.544L30.024 23.2L31.32 22.096V22.048C30.968 22.096 30.48 22.12 29.856 22.12H24.288L24.672 20.056H34.8L34.512 21.568L28.872 26.992C29.896 27.088 30.832 27.48 31.68 28.168C32.544 28.856 32.976 29.88 32.976 31.24C32.976 32.856 32.344 34.272 31.08 35.488C29.832 36.688 28.28 37.288 26.424 37.288C25.368 37.288 24.36 37.096 23.4 36.712C22.456 36.312 21.664 35.736 21.024 34.984Z" fill="#1E1E1E"/>
</svg>
