<svg width="56" height="56" viewBox="0 0 56 56" fill="none" xmlns="http://www.w3.org/2000/svg">
<circle cx="28" cy="28" r="28" fill="white"/>
<circle cx="22.4667" cy="22.4667" r="7.46667" fill="#FDFFC7"/>
<path d="M21.168 36C21.184 35.232 21.312 34.504 21.552 33.816C21.792 33.128 22.08 32.544 22.416 32.064C22.752 31.568 23.216 31.064 23.808 30.552C24.4 30.04 24.912 29.64 25.344 29.352C25.792 29.048 26.376 28.672 27.096 28.224C28.808 27.184 29.888 26.48 30.336 26.112C31.344 25.264 31.848 24.352 31.848 23.376C31.848 22.64 31.6 22.064 31.104 21.648C30.624 21.216 30 21 29.232 21C28.48 21 27.76 21.2 27.072 21.6C26.4 21.984 25.824 22.504 25.344 23.16L23.664 21.816C25.232 19.784 27.16 18.768 29.448 18.768C30.84 18.768 31.992 19.16 32.904 19.944C33.832 20.728 34.296 21.792 34.296 23.136C34.296 23.6 34.224 24.056 34.08 24.504C33.952 24.936 33.8 25.32 33.624 25.656C33.464 25.976 33.192 26.328 32.808 26.712C32.424 27.096 32.112 27.4 31.872 27.624C31.648 27.832 31.264 28.12 30.72 28.488C30.192 28.84 29.816 29.088 29.592 29.232C29.368 29.36 28.96 29.6 28.368 29.952C27.696 30.352 27.184 30.672 26.832 30.912C26.496 31.136 26.104 31.424 25.656 31.776C25.208 32.128 24.864 32.48 24.624 32.832C24.4 33.184 24.248 33.552 24.168 33.936H32.472L32.064 36H21.168Z" fill="#1E1E1E"/>
</svg>
