<svg width="24" height="25" viewBox="0 0 24 25" fill="none" xmlns="http://www.w3.org/2000/svg">
<path d="M17.2929 15.7325C17.6834 16.123 18.3166 16.123 18.7071 15.7325C19.0976 15.342 19.0976 14.7088 18.7071 14.3183L17.2929 15.7325ZM12 9.02539L12.7071 8.31828L12 7.61118L11.2929 8.31828L12 9.02539ZM5.29289 14.3183C4.90237 14.7088 4.90237 15.342 5.29289 15.7325C5.68342 16.123 6.31658 16.123 6.70711 15.7325L5.29289 14.3183ZM18.7071 14.3183L12.7071 8.31828L11.2929 9.7325L17.2929 15.7325L18.7071 14.3183ZM11.2929 8.31828L5.29289 14.3183L6.70711 15.7325L12.7071 9.7325L11.2929 8.31828Z" fill="#258884"/>
</svg>
