<svg width="56" height="57" viewBox="0 0 56 57" fill="none" xmlns="http://www.w3.org/2000/svg">
<circle cx="28" cy="28.0254" r="28" fill="#F395A9"/>
<g clip-path="url(#clip0_1_7953)">
<path d="M27.5 20.2134C30.1717 20.2134 30.4853 20.2253 31.5413 20.273C32.5179 20.3167 33.0459 20.4794 33.3992 20.6184C33.8676 20.801 34.2011 21.0153 34.5504 21.3647C34.8998 21.714 35.1181 22.0475 35.2968 22.5159C35.4317 22.8693 35.5985 23.3972 35.6421 24.3738C35.6898 25.4298 35.7017 25.7434 35.7017 28.4151C35.7017 31.0868 35.6898 31.4004 35.6421 32.4564C35.5985 33.433 35.4357 33.961 35.2968 34.3143C35.1141 34.7827 34.8998 35.1162 34.5504 35.4655C34.2011 35.8149 33.8676 36.0332 33.3992 36.2118C33.0459 36.3468 32.5179 36.5136 31.5413 36.5572C30.4853 36.6049 30.1717 36.6168 27.5 36.6168C24.8283 36.6168 24.5147 36.6049 23.4587 36.5572C22.4821 36.5136 21.9542 36.3508 21.6008 36.2118C21.1324 36.0292 20.7989 35.8149 20.4496 35.4655C20.1002 35.1162 19.8819 34.7827 19.7033 34.3143C19.5683 33.961 19.4015 33.433 19.3579 32.4564C19.3102 31.4004 19.2983 31.0868 19.2983 28.4151C19.2983 25.7434 19.3102 25.4298 19.3579 24.3738C19.4015 23.3972 19.5643 22.8693 19.7033 22.5159C19.8859 22.0475 20.1002 21.714 20.4496 21.3647C20.7989 21.0153 21.1324 20.797 21.6008 20.6184C21.9542 20.4834 22.4821 20.3167 23.4587 20.273C24.5147 20.2214 24.8323 20.2134 27.5 20.2134ZM27.5 18.4111C24.7846 18.4111 24.4432 18.423 23.3754 18.4707C22.3114 18.5183 21.585 18.689 20.9498 18.9352C20.2908 19.1892 19.735 19.5346 19.1792 20.0904C18.6235 20.6461 18.2821 21.2059 18.024 21.8609C17.7779 22.4961 17.6072 23.2226 17.5595 24.2905C17.5119 25.3544 17.5 25.6958 17.5 28.4111C17.5 31.1265 17.5119 31.4679 17.5595 32.5358C17.6072 33.5997 17.7779 34.3262 18.024 34.9653C18.2781 35.6243 18.6235 36.1801 19.1792 36.7359C19.735 37.2916 20.2948 37.633 20.9498 37.8911C21.585 38.1372 22.3114 38.3079 23.3793 38.3556C24.4472 38.4032 24.7846 38.4151 27.504 38.4151C30.2233 38.4151 30.5607 38.4032 31.6286 38.3556C32.6925 38.3079 33.419 38.1372 34.0582 37.8911C34.7172 37.637 35.2729 37.2916 35.8287 36.7359C36.3845 36.1801 36.7259 35.6203 36.9839 34.9653C37.2301 34.3301 37.4008 33.6037 37.4484 32.5358C37.496 31.4679 37.508 31.1305 37.508 28.4111C37.508 25.6918 37.496 25.3544 37.4484 24.2865C37.4008 23.2226 37.2301 22.4961 36.9839 21.8569C36.7299 21.198 36.3845 20.6422 35.8287 20.0864C35.2729 19.5306 34.7132 19.1892 34.0582 18.9312C33.423 18.6851 32.6965 18.5143 31.6286 18.4667C30.5568 18.423 30.2154 18.4111 27.5 18.4111Z" fill="white"/>
<path d="M27.5 23.2782C24.6655 23.2782 22.363 25.5767 22.363 28.4152C22.363 31.2536 24.6616 33.5521 27.5 33.5521C30.3384 33.5521 32.637 31.2536 32.637 28.4152C32.637 25.5767 30.3384 23.2782 27.5 23.2782ZM27.5 31.7458C25.658 31.7458 24.1653 30.2532 24.1653 28.4112C24.1653 26.5692 25.658 25.0765 27.5 25.0765C29.342 25.0765 30.8347 26.5692 30.8347 28.4112C30.8347 30.2532 29.342 31.7458 27.5 31.7458Z" fill="white"/>
<path d="M32.8394 24.2706C33.5015 24.2706 34.0383 23.7338 34.0383 23.0717C34.0383 22.4096 33.5015 21.8728 32.8394 21.8728C32.1773 21.8728 31.6405 22.4096 31.6405 23.0717C31.6405 23.7338 32.1773 24.2706 32.8394 24.2706Z" fill="white"/>
</g>
<defs>
<clipPath id="clip0_1_7953">
<rect width="20" height="20" fill="white" transform="translate(17.5 18.4111)"/>
</clipPath>
</defs>
</svg>
