<svg width="56" height="56" viewBox="0 0 56 56" fill="none" xmlns="http://www.w3.org/2000/svg">
<rect width="56" height="56" rx="28" fill="#258884"/>
<path d="M24.2929 22.7071C23.9024 22.3166 23.9024 21.6834 24.2929 21.2929C24.6834 20.9024 25.3166 20.9024 25.7071 21.2929L24.2929 22.7071ZM31 28L31.7071 27.2929L32.4142 28L31.7071 28.7071L31 28ZM25.7071 34.7071C25.3166 35.0976 24.6834 35.0976 24.2929 34.7071C23.9024 34.3166 23.9024 33.6834 24.2929 33.2929L25.7071 34.7071ZM25.7071 21.2929L31.7071 27.2929L30.2929 28.7071L24.2929 22.7071L25.7071 21.2929ZM31.7071 28.7071L25.7071 34.7071L24.2929 33.2929L30.2929 27.2929L31.7071 28.7071Z" fill="white"/>
</svg>
