<svg width="25" height="25" viewBox="0 0 25 25" fill="none" xmlns="http://www.w3.org/2000/svg">
<path d="M3.25 10.0254C3.25 9.08258 3.25 8.61118 3.54289 8.31828C3.83579 8.02539 4.30719 8.02539 5.25 8.02539H19.25C20.1928 8.02539 20.6642 8.02539 20.9571 8.31828C21.25 8.61118 21.25 9.08258 21.25 10.0254V11.5254C21.25 11.9913 21.25 12.2243 21.1739 12.4081C21.0724 12.6531 20.8777 12.8478 20.6327 12.9493C20.4489 13.0254 20.2159 13.0254 19.75 13.0254V13.0254C19.2841 13.0254 19.0511 13.0254 18.8673 13.1015C18.6223 13.203 18.4276 13.3977 18.3261 13.6427C18.25 13.8265 18.25 14.0594 18.25 14.5254V18.0254C18.25 18.9682 18.25 19.4396 17.9571 19.7325C17.6642 20.0254 17.1928 20.0254 16.25 20.0254H8.25C7.30719 20.0254 6.83579 20.0254 6.54289 19.7325C6.25 19.4396 6.25 18.9682 6.25 18.0254V14.5254C6.25 14.0594 6.25 13.8265 6.17388 13.6427C6.07239 13.3977 5.87771 13.203 5.63268 13.1015C5.44891 13.0254 5.21594 13.0254 4.75 13.0254V13.0254C4.28406 13.0254 4.05109 13.0254 3.86732 12.9493C3.62229 12.8478 3.42761 12.6531 3.32612 12.4081C3.25 12.2243 3.25 11.9913 3.25 11.5254V10.0254Z" stroke="white" stroke-width="1.6"/>
<path d="M5.25 13.0254H19.25" stroke="white" stroke-width="1.6" stroke-linecap="round"/>
<path d="M12.25 7.02539L12.25 20.0254" stroke="white" stroke-width="1.6" stroke-linecap="round"/>
<path d="M12.25 7.02539L11.3714 6.14684C10.3051 5.08053 9.00521 4.27713 7.5746 3.80026V3.80026C6.43099 3.41905 5.25 4.27027 5.25 5.47574V5.65785C5.25 6.47453 5.77259 7.19959 6.54737 7.45785L8.25 8.02539" stroke="white" stroke-width="1.6" stroke-linecap="round"/>
<path d="M12.25 7.02539L13.1286 6.14684C14.1949 5.08053 15.4948 4.27713 16.9254 3.80026V3.80026C18.069 3.41905 19.25 4.27027 19.25 5.47574V5.65785C19.25 6.47453 18.7274 7.19959 17.9526 7.45785L16.25 8.02539" stroke="white" stroke-width="1.6" stroke-linecap="round"/>
</svg>
