<svg width="56" height="56" viewBox="0 0 56 56" fill="none" xmlns="http://www.w3.org/2000/svg">
<rect width="56" height="56" rx="28" fill="white"/>
<path d="M31.7071 22.7071C32.0976 22.3166 32.0976 21.6834 31.7071 21.2929C31.3166 20.9024 30.6834 20.9024 30.2929 21.2929L31.7071 22.7071ZM25 28L24.2929 27.2929L23.5858 28L24.2929 28.7071L25 28ZM30.2929 34.7071C30.6834 35.0976 31.3166 35.0976 31.7071 34.7071C32.0976 34.3166 32.0976 33.6834 31.7071 33.2929L30.2929 34.7071ZM30.2929 21.2929L24.2929 27.2929L25.7071 28.7071L31.7071 22.7071L30.2929 21.2929ZM24.2929 28.7071L30.2929 34.7071L31.7071 33.2929L25.7071 27.2929L24.2929 28.7071Z" fill="#258884"/>
</svg>
