<svg width="56" height="57" viewBox="0 0 56 57" fill="none" xmlns="http://www.w3.org/2000/svg">
<circle cx="28" cy="28.0254" r="28" fill="#F6DFE3"/>
<g clip-path="url(#clip0_100_7947)">
<rect width="20" height="20" transform="translate(17.5 18.4111)" fill="#F6DFE3"/>
<path d="M31.8668 18.4111H28.414V32.0343C28.414 33.6575 27.086 34.9909 25.4334 34.9909C23.7808 34.9909 22.4528 33.6575 22.4528 32.0343C22.4528 30.4401 23.7513 29.1357 25.3449 29.0778V25.6575C21.8331 25.7155 19 28.5271 19 32.0343C19 35.5706 21.8921 38.4111 25.4629 38.4111C29.0337 38.4111 31.9258 35.5416 31.9258 32.0343V25.0488C33.2243 25.9764 34.8179 26.5271 36.5 26.5561V23.1358C33.9031 23.0488 31.8668 20.9619 31.8668 18.4111Z" fill="#535353"/>
</g>
<defs>
<clipPath id="clip0_100_7947">
<rect width="20" height="20" fill="white" transform="translate(17.5 18.4111)"/>
</clipPath>
</defs>
</svg>
