<svg width="162" height="22" viewBox="0 0 162 22" fill="none" xmlns="http://www.w3.org/2000/svg">
<path d="M14.7472 12.0995H4.13373C3.23608 12.0995 2.50438 11.3641 2.50438 10.462C2.50438 9.55986 3.23608 8.8245 4.13373 8.8245H18.4585V6.30762H4.13373C1.85565 6.30762 0 8.17254 0 10.462C0 12.7514 1.85565 14.6164 4.13373 14.6164H14.7472C16.022 14.6164 17.0554 15.655 17.0554 16.9361C17.0554 18.2173 16.022 19.2559 14.7472 19.2559H0.248929V21.7728H14.7547C17.4099 21.7728 19.5673 19.6047 19.5673 16.9361C19.5673 14.2676 17.4024 12.0995 14.7472 12.0995Z" fill="#1E1E1E"/>
<path d="M125.777 19.248C125.023 19.248 124.404 19.8697 124.404 20.6278C124.404 21.3859 125.023 22.0075 125.777 22.0075C126.531 22.0075 127.15 21.3859 127.15 20.6278C127.15 19.8621 126.531 19.248 125.777 19.248Z" fill="#1E1E1E"/>
<path d="M82.9839 6.32275H77.6357V8.83964H80.4796V19.2635H77.3717V21.7804H86.0842V19.2635H82.9839V6.32275Z" fill="#1E1E1E"/>
<path d="M80.7133 3.4418C80.8566 3.47213 81.0075 3.47971 81.1584 3.47971C81.5506 3.47971 81.9655 3.38873 82.3578 3.22195C82.9084 2.97936 83.3686 2.60789 83.6477 2.1682C83.9343 1.71334 84.0022 1.23574 83.8287 0.826364C83.4742 0.00761835 82.2446 -0.250135 81.0829 0.257791C79.9213 0.758135 79.2575 1.83463 79.612 2.65338C79.793 3.06275 80.1853 3.34325 80.7133 3.4418Z" fill="#1E1E1E"/>
<path d="M60.0221 6.73185C59.0792 6.46651 58.0608 6.34521 56.8991 6.34521H47.1532V21.7877H49.6576V15.7684H56.8991C58.0533 15.7684 59.0792 15.6395 60.0221 15.3817C61.9381 14.8587 64.2162 13.6836 64.2162 11.0606C64.2162 8.43756 61.9305 7.25493 60.0221 6.73185ZM62.9338 11.0378C62.9338 12.1901 61.2818 12.7284 59.8863 12.9786C59.1697 13.1074 58.4003 13.1681 57.5252 13.1681H49.6576V8.91517H57.5252C58.4003 8.91517 59.1772 8.97581 59.8863 9.10469C61.2818 9.34728 62.9338 9.87795 62.9338 11.0378Z" fill="#1E1E1E"/>
<path d="M74.5806 6.23928C74.5127 6.25444 74.4449 6.2696 74.3694 6.29235C74.2638 6.32267 74.1658 6.34541 74.0677 6.37574C73.9168 6.41364 73.7584 6.45155 73.6 6.50461C73.072 6.64865 72.5439 6.8306 72.1215 6.98221C71.073 7.36884 70.1678 7.80096 69.3531 8.31647C69.2777 8.36195 69.2098 8.41502 69.1344 8.46051C68.991 8.55148 68.8477 8.64245 68.7119 8.74858L68.1009 9.2186L68.0859 9.22618C68.018 9.28683 67.9501 9.35506 67.8822 9.41571V6.33025H65.3778V21.7803H67.8822V13.2744C67.9727 12.6452 68.1915 12.0691 68.5083 11.6142L68.5158 11.599C68.6818 11.3034 68.9156 11.0684 69.157 10.8106C69.2023 10.7651 69.24 10.7272 69.2852 10.6817C69.5719 10.4543 69.9038 10.189 70.281 10.007C71.0051 9.63556 72.1291 9.42329 72.9211 9.38539C73.3209 9.36264 73.7358 9.38538 74.1356 9.44603C74.3317 9.47636 74.5278 9.51426 74.724 9.57491C74.8597 9.61281 75.1011 9.6962 75.1766 9.75685L75.4179 9.98428V6.08008L75.252 6.10282C74.9804 6.14073 74.7768 6.19379 74.5806 6.23928Z" fill="#1E1E1E"/>
<path d="M44.5809 6.22414C44.513 6.2393 44.4451 6.25447 44.3697 6.27721C44.2641 6.30753 44.166 6.33028 44.0679 6.3606C43.9171 6.3985 43.7587 6.43641 43.6003 6.48948C43.0722 6.63351 42.5442 6.81546 42.1218 6.96708C41.0732 7.35371 40.168 7.78582 39.3458 8.30133C39.2704 8.34682 39.2025 8.39988 39.1271 8.44537C38.9838 8.53634 38.8404 8.62731 38.7046 8.73345L38.0936 9.20347L38.0786 9.21105C38.0107 9.2717 37.9428 9.33992 37.8749 9.40057V6.31511H35.3781V21.7651H37.8824V13.2593C37.9729 12.6301 38.1917 12.0539 38.5085 11.5991L38.5161 11.5839C38.682 11.2882 38.9159 11.0532 39.1572 10.7955C39.2025 10.75 39.2402 10.7121 39.2855 10.6666C39.5721 10.4392 39.904 10.1738 40.2812 9.99189C41.0054 9.62042 42.1293 9.40815 42.9214 9.37025C43.3212 9.3475 43.736 9.37025 44.1358 9.4309C44.332 9.46122 44.5281 9.49912 44.7242 9.55977C44.86 9.59768 45.1014 9.68107 45.1768 9.7493L45.4182 9.97673V6.06494L45.2522 6.08768C44.9807 6.12559 44.777 6.17866 44.5809 6.22414Z" fill="#1E1E1E"/>
<path d="M144.228 13.858C145.299 13.3501 146.408 12.357 146.408 10.4314C146.408 9.27913 145.458 6.2998 141.105 6.2998H130.363V21.7726H141.105C146.981 21.7726 147.049 17.8305 147.049 17.6637C147.057 15.3515 145.601 14.3205 144.228 13.858ZM141.211 13.0241H132.988V7.70229H140.788C142.629 7.70229 143.821 8.81669 143.821 10.5527C143.821 12.2585 142.297 13.0241 141.211 13.0241ZM132.988 14.6616H140.569C140.72 14.6616 144.228 14.6919 144.228 17.5879C144.228 20.1957 141.203 20.3322 141.113 20.3398H132.988V14.6616Z" fill="#1E1E1E"/>
<path d="M112.259 6.11768C106.421 6.11768 101.669 9.67316 101.669 14.0474C101.669 18.4216 106.421 21.9771 112.259 21.9771C116.906 21.9771 121.078 19.6497 122.405 16.3141L122.481 16.117L121.485 16.0867L121.447 16.1852C121.44 16.2155 120.369 18.9826 112.252 18.9826C104.935 18.9826 104.226 15.0253 104.158 14.1914H121.379L121.523 14.1763H122.835V14.0322C122.85 9.67316 118.098 6.11768 112.259 6.11768ZM120.467 11.7731H104.203C104.603 10.7345 106.323 7.5429 112.259 7.5429C116.582 7.5429 119.72 9.93849 120.467 11.7731Z" fill="#1E1E1E"/>
<path d="M30.9955 6.28469L28.295 17.4818C27.9404 18.9601 26.5675 20.1579 25.2399 20.1579C24.6968 20.1579 24.2291 19.9456 23.9198 19.5514C23.5502 19.0814 23.4446 18.3915 23.6181 17.6637L26.3639 6.27711H23.52L21.1439 16.1324C20.7592 17.7244 21.0232 19.2633 21.8756 20.3474C22.6224 21.295 23.7388 21.8181 25.0362 21.8181C27.8348 21.8181 30.7013 19.3467 31.433 16.3143L33.8544 6.26953H30.9955V6.28469Z" fill="#1E1E1E"/>
<path d="M94.6609 13.1076L94.5478 13.0697C94.5478 13.0697 94.5403 13.0697 94.5403 13.0621H94.5327C94.2838 12.9711 94.0273 12.8801 93.7784 12.7892C93.7482 12.774 93.7256 12.7664 93.7029 12.7588C91.2438 11.7354 90.3009 10.8257 90.3462 9.49902C90.3839 8.46043 91.704 7.58862 93.2353 7.58862C96.6373 7.58862 97.6255 10.0752 97.897 11.1441L97.9498 11.3488H100.462L100.424 11.091C100.122 8.80157 98.1082 6.12549 93.4238 6.12549C88.2567 6.12549 88.0681 10.0069 88.0606 10.4542C88.0304 12.9711 90.8516 14.0097 93.1146 14.8436C93.2051 14.8739 93.2956 14.9118 93.3861 14.9422L93.4088 14.9497C93.4842 14.9801 93.5521 15.0104 93.62 15.0331C96.6448 16.2537 97.6179 17.1027 97.6028 18.528C97.5877 19.8925 96.5769 20.5748 94.5176 20.6279C92.3376 20.6885 90.8591 19.5741 89.9841 17.2316L89.9313 17.08H87.2534L87.3213 17.3605C87.8418 19.5969 89.9238 21.9849 94.1782 21.9849C94.2687 21.9849 94.3743 21.9849 94.4724 21.9849C98.5231 21.8788 99.9865 19.5514 100.009 17.5879C100.024 15.071 97.3162 14.0628 94.6609 13.1076Z" fill="#1E1E1E"/>
<path d="M159.307 6.30762L154.343 15.5488L148.995 6.30762H146.762L153.34 17.4213L151.062 21.7501H153.695L161.925 6.44408L162 6.30762H159.307Z" fill="#1E1E1E"/>
</svg>
