<svg width="56" height="56" viewBox="0 0 56 56" fill="none" xmlns="http://www.w3.org/2000/svg">
<circle cx="28" cy="28" r="28" fill="white"/>
<circle cx="33" cy="23" r="7" fill="#D7EDEC"/>
<path d="M28 20L21 23L28 26L35 23L28 20Z" stroke="#1E1E1E" stroke-width="1.6" stroke-linejoin="round"/>
<path fill-rule="evenodd" clip-rule="evenodd" d="M23.2793 26.1527L20.6849 27.2646C20.3907 27.3907 20.2 27.6799 20.2 27.9999C20.2 28.32 20.3907 28.6092 20.6849 28.7353L27.6849 31.7353C27.8861 31.8215 28.1139 31.8215 28.3151 31.7353L35.3151 28.7353C35.6093 28.6092 35.8 28.32 35.8 27.9999C35.8 27.6799 35.6093 27.3907 35.3151 27.2646L32.7207 26.1527L30.6898 27.0231L32.9691 27.9999L28 30.1296L23.0309 27.9999L25.3102 27.0231L23.2793 26.1527Z" fill="#1E1E1E"/>
<path fill-rule="evenodd" clip-rule="evenodd" d="M23.2793 31.1527L20.6849 32.2646C20.3907 32.3907 20.2 32.6799 20.2 32.9999C20.2 33.32 20.3907 33.6092 20.6849 33.7353L27.6849 36.7353C27.8861 36.8215 28.1139 36.8215 28.3151 36.7353L35.3151 33.7353C35.6093 33.6092 35.8 33.32 35.8 32.9999C35.8 32.6799 35.6093 32.3907 35.3151 32.2646L32.7207 31.1527L30.6898 32.0231L32.9691 32.9999L28 35.1296L23.0309 32.9999L25.3102 32.0231L23.2793 31.1527Z" fill="#1E1E1E"/>
</svg>
