<svg width="56" height="56" viewBox="0 0 56 56" fill="none" xmlns="http://www.w3.org/2000/svg">
<circle cx="28" cy="28" r="28" fill="white"/>
<circle cx="23" cy="23" r="7" fill="#FDFFC7"/>
<path d="M14.96 33C14.9067 32.6587 14.88 32.3707 14.88 32.136C14.88 31.592 14.9813 31.0853 15.184 30.616C15.3867 30.1467 15.648 29.7413 15.968 29.4C16.2987 29.0587 16.6613 28.7387 17.056 28.44C17.4507 28.1307 17.8453 27.8427 18.24 27.576C18.6453 27.3093 19.008 27.0427 19.328 26.776C19.6587 26.5093 19.9253 26.216 20.128 25.896C20.3307 25.5653 20.432 25.224 20.432 24.872C20.432 24.3173 20.24 23.8693 19.856 23.528C19.472 23.176 18.9813 23 18.384 23C17.9253 23 17.488 23.1333 17.072 23.4C16.6667 23.6667 16.3413 24.0133 16.096 24.44L14.928 23.656C15.2693 23.0267 15.7547 22.5147 16.384 22.12C17.0133 21.7147 17.7227 21.512 18.512 21.512C19.5573 21.512 20.4107 21.8107 21.072 22.408C21.7333 23.0053 22.064 23.7893 22.064 24.76C22.064 25.336 21.9307 25.8747 21.664 26.376C21.3973 26.8773 21.0613 27.2933 20.656 27.624C20.2613 27.944 19.8293 28.2747 19.36 28.616C18.8907 28.9573 18.4533 29.2613 18.048 29.528C17.6427 29.7947 17.3013 30.1147 17.024 30.488C16.7573 30.8507 16.6187 31.2293 16.608 31.624H22.24V33H14.96ZM24.8519 33V24.904H28.1959C29.0279 24.904 29.6839 25.0853 30.1639 25.448C30.6545 25.8 30.8999 26.312 30.8999 26.984C30.8999 27.3787 30.7985 27.736 30.5959 28.056C30.3932 28.3653 30.1105 28.6 29.7479 28.76V28.776C30.2385 28.8933 30.6172 29.128 30.8839 29.48C31.1505 29.832 31.2839 30.2373 31.2839 30.696C31.2839 31.432 31.0119 32.0027 30.4679 32.408C29.9345 32.8027 29.2145 33 28.3079 33H24.8519ZM26.4039 28.328H27.9239C28.3825 28.328 28.7292 28.2213 28.9639 28.008C29.1985 27.784 29.3159 27.48 29.3159 27.096C29.3159 26.3493 28.8359 25.976 27.8759 25.976H26.4039V28.328ZM26.4039 31.912H28.0679C28.6119 31.912 29.0225 31.8 29.2999 31.576C29.5772 31.352 29.7159 31.0427 29.7159 30.648C29.7159 30.2427 29.5719 29.928 29.2839 29.704C28.9959 29.48 28.5852 29.368 28.0519 29.368H26.4039V31.912ZM33.3564 33V31.624H35.8524V24.328L35.8684 23.64H35.8364C35.751 23.8 35.5697 24.0187 35.2924 24.296L34.2364 25.32L33.2764 24.328L35.9804 21.704H37.3884V31.624H39.8684V33H33.3564Z" fill="#1E1E1E"/>
</svg>
